<svg height="50" viewBox="0 0 50 50" width="50" xmlns="http://www.w3.org/2000/svg"><link xmlns="" type="text/css" rel="stylesheet" id="dark-mode-custom-link"/><link xmlns="" type="text/css" rel="stylesheet" id="dark-mode-general-link"/><style xmlns="" lang="en" type="text/css" id="dark-mode-custom-style"/><style xmlns="" lang="en" type="text/css" id="dark-mode-native-style"/><g fill="none" fill-rule="evenodd" transform="translate(6 7)"><path d="m35.6 14.5c0 .3-.3.6-.7.5l-6.8-1.9c-.3-.1-.6-.4-.6-.8l1.1-11.2c0-.3.3-.6.7-.5l7 1.4c.3.1.6.4.5.8z" fill="#607d8b"/><path d="m31.9 25.4c0 .4-.4.7-.9.6l-8.7-2.4c-.4-.1-.7-.5-.7-1l1.4-14.4c0-.4.4-.7.9-.6l8.9 1.7c.4.1.7.5.7 1z" fill="#607d8b"/><path d="m27 35.2c0 .6-.5.9-1 .8l-11-3c-.5-.1-.9-.7-.9-1.2l1.8-18.1c.1-.5.5-.9 1.1-.8l11.1 2.1c.5.1.9.7.9 1.2z" fill="#607d8b"/><g fill="#37474f"><path d="m37.4 1.4-6.9-1.3c-.1 0-.3 0-.4 0l-1.2.6c.1-.1.2-.1.4-.1l7 1.4c.3.1.6.4.5.8l-1.2 11.8c0 .2-.1.3-.2.4l1.1-.6c.1-.1.3-.2.3-.4l1.2-11.9c0-.3-.2-.6-.6-.7z"/><path d="m35.2 15c.1-.1.1 0 0 0z"/><path d="m31.5 26c0-.1 0-.1 0 0z"/><path d="m34.3 8.6-8.9-1.7c-.2 0-.3 0-.5.1l-1.4.8c.1-.1.3-.1.5-.1l8.9 1.7c.4.1.7.5.7 1l-1.5 15c0 .2-.1.4-.3.5l1.4-.7c.2-.1.3-.3.4-.5l1.5-15c-.1-.6-.4-1-.8-1.1z"/><path d="m26.4 35.9.1-.1c0 .1 0 .1-.1.1z"/><path d="m30 14.1-11.1-2.1c-.2-.1-.4 0-.6.1l-1.9 1c.2-.1.4-.2.6-.1l11.1 2.1c.5.1.9.7.9 1.2l-2 18.9c0 .3-.2.5-.3.6l1.8-.9c.2-.1.4-.4.5-.7l1.9-18.9c0-.5-.4-1.1-.9-1.2z"/></g><path d="m15 21-7 6v-12z" fill="#ff3d00"/><path d="m4 23c-1.4 0-2.3-.6-2.8-1.1-1.1-1.1-1.2-2.6-1.2-2.9v-8h4v8h8v4z" fill="#ff3d00"/><g fill="#fff"><path d="m26.4 19c.1-.8-.3-1.6-1-1.7s-1.3.5-1.4 1.3.3 1.6 1 1.7c.6.1 1.3-.5 1.4-1.3z"/><path d="m20.3 17.5c.1-.8-.3-1.6-1-1.7s-1.3.5-1.4 1.3.3 1.6 1 1.7c.6.1 1.2-.5 1.4-1.3z"/><path d="m25.1 31.7c.1-.8-.3-1.6-1-1.7s-1.3.5-1.4 1.3.3 1.6 1 1.7c.6.1 1.2-.5 1.4-1.3z"/><path d="m18.9 30c.1-.8-.3-1.6-1-1.7s-1.3.5-1.4 1.3.3 1.6 1 1.7 1.3-.5 1.4-1.3z"/><path d="m22.5 24.5c.1-.8-.3-1.6-1-1.7s-1.3.5-1.4 1.3.3 1.6 1 1.7c.6.1 1.3-.5 1.4-1.3z"/></g></g></svg>