<svg height="50" viewBox="0 0 50 50" width="50" xmlns="http://www.w3.org/2000/svg"><link xmlns="" type="text/css" rel="stylesheet" id="dark-mode-custom-link"/><link xmlns="" type="text/css" rel="stylesheet" id="dark-mode-general-link"/><style xmlns="" lang="en" type="text/css" id="dark-mode-custom-style"/><style xmlns="" lang="en" type="text/css" id="dark-mode-native-style"/><g fill="none"><g transform="translate(12 6)"><path d="m22.7857143 3h-22.7857143v4.26666667h22.7857143c1.1392857 0 2.0714286.96 2.0714286 2.13333333v21.3333333h-12.4285715v4.2666667h16.5714286v-25.6c0-3.52-2.7964286-6.4-6.2142857-6.4z" fill="#90caf9"/><path d="m22 11h10v11h-10z" fill="#2196f3"/><path d="m15.2380952 0c-2.8929201 0-5.2380952 2.3629416-5.2380952 5.27777778s2.3451751 5.27777782 5.2380952 5.27777782c2.8929202 0 5.2380953-2.36294164 5.2380953-5.27777782s-2.3451751-5.27777778-5.2380953-5.27777778zm11.5238096 27.4444444c-2.8929202 0-5.2380953 2.3629416-5.2380953 5.2777778s2.3451751 5.2777778 5.2380953 5.2777778c2.8929201 0 5.2380952-2.3629416 5.2380952-5.2777778s-2.3451751-5.2777778-5.2380952-5.2777778z" fill="#2196f3"/><path d="m5 27h10v11h-10z" fill="#d81b60"/></g><path d="m0 12v-12l12 6z" fill="#2196f3" transform="translate(5 5)"/></g></svg>