<svg height="50" viewBox="0 0 50 50" width="50" xmlns="http://www.w3.org/2000/svg"><link xmlns="" type="text/css" rel="stylesheet" id="dark-mode-custom-link"/><link xmlns="" type="text/css" rel="stylesheet" id="dark-mode-general-link"/><style xmlns="" lang="en" type="text/css" id="dark-mode-custom-style"/><style xmlns="" lang="en" type="text/css" id="dark-mode-native-style"/><g fill="none" transform="translate(4 10)"><path d="m42 20h-42v-16c0-2.209 1.88186731-4 4.20294206-4h37.79705794z" fill="#3f51b5"/><path d="m5 8h4.11111111v3.3936652h-4.11111111zm18.5 0h10.2777778v3.3936652h-10.2777778zm14.3888889 0h4.1111111v3.3936652h-4.1111111zm-24.6666667 0h6.1666667v3.3936652h-6.1666667z" fill="#e1f5fe"/><g transform="translate(17 16)"><path d="m6.254 14c-.122 0-.245-.022-.361-.067-.248-.096-.447-.286-.554-.529l-1.103-2.502-.655.617c-.286.27-.658.418-1.047.418-.846 0-1.535-.688-1.535-1.533v-7.871c.001-.845.689-1.533 1.536-1.533.388 0 .759.147 1.044.416l5.681 5.332c.439.413.596 1.048.399 1.618s-.712.972-1.313 1.024l-.918.082 1.107 2.522c.222.504-.006 1.093-.51 1.316l-1.365.605c-.129.056-.267.085-.406.085z" fill="#f5f5f5"/><path d="m2.535 2c.125 0 .254.045.36.145l5.68 5.331c.335.314.14.876-.317.917l-2.307.204 1.667 3.798-1.364.605-1.673-3.798-1.685 1.588c-.107.101-.235.146-.361.146-.274 0-.535-.213-.535-.533v-7.871c0-.319.261-.532.535-.532m0-2c-1.398 0-2.535 1.136-2.535 2.533v7.871c0 1.396 1.137 2.533 2.535 2.533.477 0 .938-.134 1.337-.384l.553 1.254c.214.486.613.867 1.109 1.059.231.089.476.134.72.134.277 0 .553-.057.811-.172l1.365-.605c1.007-.447 1.463-1.624 1.02-2.632l-.565-1.287c.794-.22 1.444-.818 1.719-1.613.325-.942.066-1.991-.66-2.673l-5.68-5.331c-.472-.443-1.086-.687-1.729-.687z" fill="#424242"/></g></g></svg>