<svg height="50" viewBox="0 0 50 50" width="50" xmlns="http://www.w3.org/2000/svg"><link xmlns="" type="text/css" rel="stylesheet" id="dark-mode-custom-link"/><link xmlns="" type="text/css" rel="stylesheet" id="dark-mode-general-link"/><style xmlns="" lang="en" type="text/css" id="dark-mode-custom-style"/><style xmlns="" lang="en" type="text/css" id="dark-mode-native-style"/><g fill="none" fill-rule="evenodd"><circle cx="19.5" cy="31.5" fill="#9c27b0" r="13.5"/><g fill="#e1bee7" transform="translate(16 7)"><path d="m14.5 0c-6.661 0-12.197 4.854-13.291 11.208.747-.127 1.509-.208 2.291-.208.615 0 1.216.056 1.81.135 1.055-4.095 4.769-7.135 9.19-7.135 5.238 0 9.5 4.262 9.5 9.5 0 4.421-3.039 8.135-7.135 9.19.079.593.135 1.195.135 1.81 0 .782-.081 1.545-.209 2.29 6.355-1.093 11.209-6.628 11.209-13.29 0-7.444-6.056-13.5-13.5-13.5z"/><path d="m11 8 9 9v-9z"/><path d="m9 28-9-9v9z"/><path d="m8.914594 7.893535h3.999962v18.384824h-3.999962z" transform="matrix(-.70710678 -.70710678 .70710678 -.70710678 6.550757 36.885304)"/></g></g></svg>