<svg height="50" viewBox="0 0 50 50" width="50" xmlns="http://www.w3.org/2000/svg"><link xmlns="" type="text/css" rel="stylesheet" id="dark-mode-custom-link"/><link xmlns="" type="text/css" rel="stylesheet" id="dark-mode-general-link"/><style xmlns="" lang="en" type="text/css" id="dark-mode-custom-style"/><style xmlns="" lang="en" type="text/css" id="dark-mode-native-style"/><g fill="none" fill-rule="evenodd"><g transform="translate(11 4)"><path d="m29.3965843 19.3154506-15.7779444-5.8153027 15.7779444-5.81530267c1.2656105-.48460855 1.9406028-1.85766613 1.4343586-3.14995562-.5062442-1.21152139-1.9406028-1.85766613-3.2905874-1.37305758l-21.93724885 8.07680927c-.92811438.3230724-1.60310665 1.2922895-1.60310665 2.2615066s.67499227 1.9384343 1.60310665 2.2615066l21.93724885 8.0768093c.3374962.0807681.5906183.1615362.9281144.1615362 1.0124884 0 1.9406028-.5653767 2.362473-1.5345938.5062442-1.2922895-.1687481-2.665347-1.4343586-3.1499556z" fill="#1976d2"/><g fill="#1e88e5"><ellipse cx="5.95" cy="14" rx="5.95" ry="5.764706"/><ellipse cx="28.05" cy="5.764706" rx="5.95" ry="5.764706"/><ellipse cx="28.05" cy="22.235294" rx="5.95" ry="5.764706"/></g></g><g transform="translate(4 6)"><path d="m18 24h-18v-24h18z" fill="#3a736e"/><g fill="#fff"><path d="m11 6h-1.33333333l-2.66666667 13h1.33333333z"/><path d="m6 8h-1.2l-1.8 4h1.2z"/><path d="m3 12h1.2l1.8 4h-1.2z"/><path d="m12 16h1.2l1.8-4h-1.2z"/><path d="m15 12h-1.2l-1.8-4h1.2z"/></g></g></g></svg>