<svg height="50" viewBox="0 0 50 50" width="50" xmlns="http://www.w3.org/2000/svg"><link xmlns="" type="text/css" rel="stylesheet" id="dark-mode-custom-link"/><link xmlns="" type="text/css" rel="stylesheet" id="dark-mode-general-link"/><style xmlns="" lang="en" type="text/css" id="dark-mode-custom-style"/><style xmlns="" lang="en" type="text/css" id="dark-mode-native-style"/><g fill="none" fill-rule="evenodd"><path d="m6 12h26v17h-26z" fill="#90caf9"/><path d="m18 26h26v17h-26z" fill="#8bc34a"/><g fill="#3f51b5" transform="translate(6 7)"><path d="m4 10h7v7h-7z"/><path d="m15 10h7v7h-7z"/><path d="m26 5v-4c0-.553-.447-1-1-1h-24c-.552 0-1 .447-1 1v4z"/></g><g fill="#558b2f" transform="translate(18 21)"><path d="m4 10h7v7h-7z"/><path d="m15 10h7v7h-7z"/><path d="m26 5v-4c0-.553-.447-1-1-1h-24c-.552 0-1 .447-1 1v4z"/></g></g></svg>