<svg height="50" viewBox="0 0 50 50" width="50" xmlns="http://www.w3.org/2000/svg"><link xmlns="" type="text/css" rel="stylesheet" id="dark-mode-custom-link"/><link xmlns="" type="text/css" rel="stylesheet" id="dark-mode-general-link"/><style xmlns="" lang="en" type="text/css" id="dark-mode-custom-style"/><style xmlns="" lang="en" type="text/css" id="dark-mode-native-style"/><g fill="none" fill-rule="evenodd"><g transform="translate(7.904762 10.904762)"><path d="m6.0952381 6.0952381-6-6v22l6 8z" fill="#95a5a6"/><path d="m6.0952381 6.0952381h24l-8-6h-22z" fill="#cfd8dc"/><path d="m30.0952381 30.0952381h-24v-24h24z" fill="#bdc3c7"/></g><g transform="translate(2 1)"><path d="m0 48v-48h48v48z"/><g transform="translate(12 16)"><path d="m24 23.2941176c0 .3915442-.2812499.7058824-.6315789.7058824h-22.73684215c-.35032902 0-.63157895-.3143382-.63157895-.7058824v-22.58823525c0-.3915442.28124993-.70588235.63157895-.70588235h22.73684215c.350329 0 .6315789.31433815.6315789.70588235z" fill="#bbdefb"/><path d="m3 4h5v2h-5z" fill="#1976d2"/><path d="m18 11.25c0 .4130857-.3710937.75-.8333333.75h-13.33333337c-.45898412 0-.83333333-.3369143-.83333333-.75v-1.5c0-.41308571.37434921-.75.83333333-.75h13.33333337c.4622396 0 .8333333.33691429.8333333.75z" fill="#fff"/></g></g></g></svg>