<svg height="50" viewBox="0 0 50 50" width="50" xmlns="http://www.w3.org/2000/svg"><link xmlns="" type="text/css" rel="stylesheet" id="dark-mode-custom-link"/><link xmlns="" type="text/css" rel="stylesheet" id="dark-mode-general-link"/><style xmlns="" lang="en" type="text/css" id="dark-mode-custom-style"/><style xmlns="" lang="en" type="text/css" id="dark-mode-native-style"/><g fill="none" transform="translate(6 7)"><path d="m18.9 36c-.8 0-1.5-.2-2.2-.6l-9.2-5 1-1.8 9.2 5c.8.4 1.8.4 2.6-.1l8.2-4.9 1 1.7-8.2 4.9c-.7.6-1.6.8-2.4.8zm16.1-14h-2v-7.9c0-1-.5-1.8-1.4-2.3l-7.1-4 1-1.7 7.1 4c1.5.8 2.4 2.4 2.4 4zm-30 0h-2v-7.9c0-1.7.9-3.2 2.4-4l7.1-4 1 1.7-7.1 4c-.8.5-1.3 1.3-1.3 2.3v7.9z" fill="#cfd8dc"/><path d="m12 4 7-4 7 4v8l-7 4-7-4zm12 25 7 4 7-4v-8l-7-4-7 4zm-24 0 7 4 7-4v-8l-7-4-7 4z" fill="#00bcd4"/><path d="m12 4 7 4v8l-7-4zm-12 25 7 4v-8l-7-4zm24 0 7 4v-8l-7-4z" fill="#00acc1"/><path d="m19 8 7-4v8l-7 4zm12 25 7-4v-8l-7 4zm-24 0 7-4v-8l-7 4z" fill="#4dd0e1"/></g></svg>